<?xml version="1.0" encoding="UTF-8"?>
<svg width="406px" height="120px" viewBox="0 0 406 120" version="1.1" xmlns="http://www.w3.org/2000/svg" xmlns:xlink="http://www.w3.org/1999/xlink">
    <!-- Generator: Sketch 51.3 (57544) - http://www.bohemiancoding.com/sketch -->
    <title>Group 7</title>
    <desc>Created with Sketch.</desc>
    <defs></defs>
    <g id="Page-1" stroke="none" stroke-width="1" fill="none" fill-rule="evenodd">
        <g id="Group-7" transform="translate(0.000000, -23.000000)">
            <g id="Group-7-Copy" transform="translate(0.000000, 35.000000)" fill="#486FFF">
                <path d="M64.2,24.9 L53.5,78.7 L38.7,78.7 L39.7,73.4 C35.233311,77.466687 29.733366,79.5 23.2,79.5 C18.999979,79.5 15.133351,78.533343 11.6,76.6 C8.066649,74.666657 5.2500105,71.8833515 3.15,68.25 C1.0499895,64.6166485 0,60.333358 0,55.4 C0,49.466637 1.3166535,44.1166905 3.95,39.35 C6.5833465,34.5833095 10.166644,30.8500135 14.7,28.15 C19.233356,25.4499865 24.233306,24.1 29.7,24.1 C37.966708,24.1 43.799983,26.799973 47.2,32.2 L48.6,24.9 L64.2,24.9 Z M28,66.6 C31.066682,66.6 33.799988,65.8500075 36.2,64.35 C38.600012,62.8499925 40.46666,60.76668 41.8,58.1 C43.13334,55.43332 43.8,52.366684 43.8,48.9 C43.8,45.233315 42.7166775,42.333344 40.55,40.2 C38.3833225,38.066656 35.366686,37 31.5,37 C28.433318,37 25.700012,37.7499925 23.3,39.25 C20.899988,40.7500075 19.03334,42.83332 17.7,45.5 C16.36666,48.16668 15.7,51.233316 15.7,54.7 C15.7,58.366685 16.7833225,61.266656 18.95,63.4 C21.1166775,65.533344 24.133314,66.6 28,66.6 Z M78.6,24.9 L94.1,24.9 L83.4,78.7 L67.9,78.7 L78.6,24.9 Z M89,17.4 C86.33332,17.4 84.1500085,16.6166745 82.45,15.05 C80.7499915,13.4833255 79.9,11.566678 79.9,9.3 C79.9,6.63332 80.8499905,4.4166755 82.75,2.65 C84.6500095,0.8833245 87.133318,0 90.2,0 C92.933347,0 95.1499915,0.7499925 96.85,2.25 C98.5500085,3.7500075 99.4,5.599989 99.4,7.8 C99.4,10.666681 98.433343,12.9833245 96.5,14.75 C94.566657,16.5166755 92.066682,17.4 89,17.4 Z M138,48.3 L156.5,78.7 L138.4,78.7 L125.6,57.8 L116.1,65.7 L113.5,78.7 L97.9,78.7 L112.7,4.5 L128.3,4.5 L120,46 L145.8,24.9 L166.1,24.9 L138,48.3 Z M190.5,79.5 C185.099973,79.5 180.35002,78.50001 176.25,76.5 C172.14998,74.49999 168.983344,71.6833515 166.75,68.05 C164.516656,64.4166485 163.4,60.200024 163.4,55.4 C163.4,49.466637 164.799986,44.133357 167.6,39.4 C170.400014,34.666643 174.266642,30.933347 179.2,28.2 C184.133358,25.466653 189.699969,24.1 195.9,24.1 C201.366694,24.1 206.133313,25.09999 210.2,27.1 C214.266687,29.10001 217.416655,31.9166485 219.65,35.55 C221.883344,39.1833515 223,43.399976 223,48.2 C223,54.133363 221.616681,59.466643 218.85,64.2 C216.083319,68.933357 212.216691,72.666653 207.25,75.4 C202.283309,78.133347 196.700031,79.5 190.5,79.5 Z M191.5,66.6 C194.500015,66.6 197.199988,65.8500075 199.6,64.35 C202.000012,62.8499925 203.86666,60.76668 205.2,58.1 C206.53334,55.43332 207.2,52.366684 207.2,48.9 C207.2,45.233315 206.133344,42.333344 204,40.2 C201.866656,38.066656 198.866686,37 195,37 C191.933318,37 189.200012,37.7499925 186.8,39.25 C184.399988,40.7500075 182.53334,42.83332 181.2,45.5 C179.86666,48.16668 179.2,51.233316 179.2,54.7 C179.2,58.366685 180.283322,61.266656 182.45,63.4 C184.616677,65.533344 187.633314,66.6 191.5,66.6 Z" id="aikomail-copy-12"></path>
            </g>
            <text id="day" font-family="Futura-Medium, Futura" font-size="110" font-weight="400" fill="#000000">
                <tspan x="215" y="114">day</tspan>
            </text>
        </g>
    </g>
</svg>